<svg xmlns="http://www.w3.org/2000/svg" xmlns:xlink="http://www.w3.org/1999/xlink" width="500" zoomAndPan="magnify" viewBox="0 0 375 374.999991" height="500" preserveAspectRatio="xMidYMid meet" version="1.0"><defs><clipPath id="72b2274423"><path d="M 11.816406 6.097656 L 363.183594 6.097656 L 363.183594 357.464844 L 11.816406 357.464844 Z M 11.816406 6.097656 " clip-rule="nonzero"/></clipPath><clipPath id="4806d33b5c"><path d="M 187.5 6.097656 C 90.472656 6.097656 11.816406 84.753906 11.816406 181.78125 C 11.816406 278.808594 90.472656 357.464844 187.5 357.464844 C 284.527344 357.464844 363.183594 278.808594 363.183594 181.78125 C 363.183594 84.753906 284.527344 6.097656 187.5 6.097656 " clip-rule="nonzero"/></clipPath><clipPath id="353e3cc79e"><path d="M 11.816406 6.097656 L 363.011719 6.097656 L 363.011719 357.292969 L 11.816406 357.292969 Z M 11.816406 6.097656 " clip-rule="nonzero"/></clipPath><clipPath id="b059a76f92"><path d="M 187.414062 6.097656 C 90.433594 6.097656 11.816406 84.714844 11.816406 181.695312 C 11.816406 278.675781 90.433594 357.292969 187.414062 357.292969 C 284.394531 357.292969 363.011719 278.675781 363.011719 181.695312 C 363.011719 84.714844 284.394531 6.097656 187.414062 6.097656 " clip-rule="nonzero"/></clipPath><clipPath id="e8b30bda8a"><path d="M 36.671875 30.953125 L 338.328125 30.953125 L 338.328125 332.613281 L 36.671875 332.613281 Z M 36.671875 30.953125 " clip-rule="nonzero"/></clipPath><clipPath id="7bee46647b"><path d="M 187.5 30.953125 C 104.199219 30.953125 36.671875 98.480469 36.671875 181.78125 C 36.671875 265.082031 104.199219 332.613281 187.5 332.613281 C 270.800781 332.613281 338.328125 265.082031 338.328125 181.78125 C 338.328125 98.480469 270.800781 30.953125 187.5 30.953125 " clip-rule="nonzero"/></clipPath><clipPath id="fa08d2358e"><path d="M 68.875 106.554688 L 306.125 106.554688 L 306.125 314.148438 L 68.875 314.148438 Z M 68.875 106.554688 " clip-rule="nonzero"/></clipPath><clipPath id="a856bfdf4b"><path d="M 187.5 314.148438 L 306.125 106.554688 L 68.875 106.554688 L 187.5 314.148438 " clip-rule="nonzero"/></clipPath></defs><path fill="#ffffff" d="M -4.78125 0 L 374.90625 0 L 374.90625 374.414062 L -4.78125 374.414062 Z M -4.78125 0 " fill-opacity="1" fill-rule="nonzero"/><g clip-path="url(#72b2274423)"><g clip-path="url(#4806d33b5c)"><path fill="#ffffff" d="M 11.816406 6.097656 L 363.183594 6.097656 L 363.183594 357.464844 L 11.816406 357.464844 Z M 11.816406 6.097656 " fill-opacity="1" fill-rule="nonzero"/></g></g><g clip-path="url(#353e3cc79e)"><g clip-path="url(#b059a76f92)"><path stroke-linecap="butt" transform="matrix(1.809414, 0, 0, 1.809414, 11.815818, 6.097729)" fill="none" stroke-linejoin="miter" d="M 97.047017 -0.0000403609 C 43.449299 -0.0000403609 0.000325169 43.448933 0.000325169 97.046651 C 0.000325169 150.644369 43.449299 194.093343 97.047017 194.093343 C 150.644734 194.093343 194.093708 150.644369 194.093708 97.046651 C 194.093708 43.448933 150.644734 -0.0000403609 97.047017 -0.0000403609 " stroke="#0097b2" stroke-width="3.314389" stroke-opacity="1" stroke-miterlimit="4"/></g></g><g clip-path="url(#e8b30bda8a)"><g clip-path="url(#7bee46647b)"><path fill="#0097b2" d="M 36.671875 30.953125 L 338.328125 30.953125 L 338.328125 332.613281 L 36.671875 332.613281 Z M 36.671875 30.953125 " fill-opacity="1" fill-rule="nonzero"/></g></g><g clip-path="url(#fa08d2358e)"><g clip-path="url(#a856bfdf4b)"><path fill="#ffffff" d="M 68.875 106.554688 L 306.125 106.554688 L 306.125 314.148438 L 68.875 314.148438 Z M 68.875 106.554688 " fill-opacity="1" fill-rule="nonzero"/></g></g><path stroke-linecap="butt" transform="matrix(0.000000000000000111, 1.815468, -1.810289, 0.000000000000000111, 196.549868, 106.557166)" fill="none" stroke-linejoin="miter" d="M 0.000786545 4.99913 L 114.672897 4.99913 " stroke="#0097b2" stroke-width="10" stroke-opacity="1" stroke-miterlimit="4"/></svg>